<?xml version="1.0" encoding="UTF-8" standalone="no"?>
<svg width="200px" height="63px" viewBox="0 0 200 63" version="1.1" xmlns="http://www.w3.org/2000/svg" xmlns:xlink="http://www.w3.org/1999/xlink">
    <!-- Generator: Sketch 44.1 (41455) - http://www.bohemiancoding.com/sketch -->
    <title>Deko_landscape_colour_dark</title>
    <desc>Created with Sketch.</desc>
    <defs></defs>
    <g id="logos" stroke="none" stroke-width="1" fill="none" fill-rule="evenodd">
        <g id="Deko_landscape_colour_dark">
            <polygon id="Fill-1" fill="#122E34" points="-2.2759572e-15 62.8571429 200 62.8571429 200 2.84217094e-14 -2.2759572e-15 2.84217094e-14"></polygon>
            <path d="M28.7965714,44.4402857 L19.1637143,44.4402857 C18.7671429,44.4402857 18.4457143,44.1197143 18.4457143,43.7242857 L18.4457143,19.0934286 C18.4457143,18.698 18.7671429,18.3774286 19.1637143,18.3774286 L28.9951429,18.3774286 C36.2671429,18.3774286 42.1702857,24.3331429 42.0591429,31.6111429 C41.95,38.7614286 35.9668571,44.4402857 28.7965714,44.4402857 Z M28.9951429,12.2448571 L13.2542857,12.2448571 C12.7257143,12.2448571 12.2971429,12.6722857 12.2971429,13.1994286 L12.2971429,49.618 C12.2971429,50.1451429 12.7257143,50.5725714 13.2542857,50.5725714 L28.7537143,50.5725714 C39.3485714,50.5725714 48.1302857,42.1205714 48.2088571,31.554 C48.288,20.9034286 39.6554286,12.2448571 28.9951429,12.2448571 L28.9951429,12.2448571 Z" id="Fill-3" fill="#FFFFFF"></path>
            <path d="M168.077714,11.8351429 C157.239143,11.8351429 148.452571,20.5985714 148.452571,31.4088571 C148.452571,42.2188571 157.239143,50.9825714 168.077714,50.9825714 C178.916286,50.9825714 187.702857,42.2188571 187.702857,31.4088571 C187.702857,20.5985714 178.916286,11.8351429 168.077714,11.8351429 Z M168.077714,17.8894286 C175.551714,17.8894286 181.632286,23.9542857 181.632286,31.4088571 C181.632286,38.8631429 175.551714,44.928 168.077714,44.928 C160.603714,44.928 154.522857,38.8631429 154.522857,31.4088571 C154.522857,23.9542857 160.603714,17.8894286 168.077714,17.8894286 L168.077714,17.8894286 Z" id="Fill-4" fill="#FFFFFF"></path>
            <path d="M112.766857,50.5725714 L108.532857,50.5725714 C108.004,50.5725714 107.575429,50.1451429 107.575429,49.618 L107.575429,13.1997143 C107.575429,12.6722857 108.004,12.2448571 108.532857,12.2448571 L112.766857,12.2448571 C113.295429,12.2448571 113.724,12.6722857 113.724,13.1997143 L113.724,49.618 C113.724,50.1451429 113.295429,50.5725714 112.766857,50.5725714" id="Fill-5" fill="#FFFFFF"></path>
            <path d="M94.738,17.4225714 L94.738,13.1997143 C94.738,12.6722857 94.3094286,12.2448571 93.7805714,12.2448571 L59.7668571,12.2448571 C59.2382857,12.2448571 58.8097143,12.6722857 58.8097143,13.1997143 L58.8097143,17.4225714 C58.8097143,17.95 59.2382857,18.3771429 59.7668571,18.3771429 L93.7805714,18.3771429 C94.3094286,18.3771429 94.738,17.95 94.738,17.4225714" id="Fill-6" fill="#E3636F"></path>
            <path d="M58.8097143,45.3948571 L58.8097143,49.618 C58.8097143,50.1451429 59.2382857,50.5725714 59.7668571,50.5725714 L93.7805714,50.5725714 C94.3094286,50.5725714 94.738,50.1451429 94.738,49.618 L94.738,45.3948571 C94.738,44.8677143 94.3094286,44.4402857 93.7805714,44.4402857 L59.7668571,44.4402857 C59.2382857,44.4402857 58.8097143,44.8677143 58.8097143,45.3948571" id="Fill-7" fill="#EB9D3F"></path>
            <path d="M94.738,33.5202857 L94.738,29.2971429 C94.738,28.77 94.3094286,28.3425714 93.7805714,28.3425714 L59.7668571,28.3425714 C59.2382857,28.3425714 58.8097143,28.77 58.8097143,29.2971429 L58.8097143,33.5202857 C58.8097143,34.0477143 59.2382857,34.4751429 59.7668571,34.4751429 L93.7805714,34.4751429 C94.3094286,34.4751429 94.738,34.0477143 94.738,33.5202857" id="Fill-8" fill="#24B095"></path>
            <path d="M125.743143,30.5711429 L143.802,12.5597143 C144.103429,12.2591429 143.89,11.7448571 143.463714,11.7448571 L136.419429,11.7448571 C136.102,11.7448571 135.797714,11.8705714 135.573429,12.0942857 L118.063143,29.5585714 C117.315429,30.3042857 117.315429,31.5131429 118.063143,32.2588571 L135.573143,49.7231429 C135.797429,49.9468571 136.102,50.0725714 136.419143,50.0725714 L143.463714,50.0725714 C143.89,50.0725714 144.103429,49.5585714 143.802,49.2577143 L125.743143,31.2462857 C125.556286,31.06 125.556286,30.7577143 125.743143,30.5711429" id="Fill-9" fill="#FFFFFF"></path>
        </g>
    </g>
</svg>