<svg id="Layer_1" data-name="Layer 1" xmlns="http://www.w3.org/2000/svg" viewBox="0 0 228.11 58.78"><defs><style>.cls-1{fill:#8cc63f;}.cls-2{fill:#3c3c3b;}</style></defs><title>logo--dark</title><path class="cls-1" d="M32.84,29.93a2.44,2.44,0,1,1-2.44-2.44,2.44,2.44,0,0,1,2.44,2.44" transform="translate(-1 -0.54)"/><path class="cls-1" d="M30.39,56.23A26.3,26.3,0,1,1,48.74,11.11L50.89,8.9a29.39,29.39,0,1,0,.21,41.87l-2.18-2.19a26.21,26.21,0,0,1-18.53,7.66" transform="translate(-1 -0.54)"/><path class="cls-1" d="M30.39,48.16A18.22,18.22,0,1,1,43.12,16.91l2.15-2.22A21.31,21.31,0,1,0,45.41,45l-2.18-2.19a18.16,18.16,0,0,1-12.84,5.31" transform="translate(-1 -0.54)"/><path class="cls-1" d="M30.39,40.05a10.12,10.12,0,1,1,7.09-17.33l2.15-2.22a13.21,13.21,0,1,0,.08,18.79L37.53,37.1a10.09,10.09,0,0,1-7.14,3" transform="translate(-1 -0.54)"/><path class="cls-1" d="M27.95,29.93a2.44,2.44,0,1,0,2.44-2.44,2.44,2.44,0,0,0-2.44,2.44" transform="translate(-1 -0.54)"/><path class="cls-2" d="M68.47,35.56a9.14,9.14,0,0,0,4.84-1.38l.77,3a11.08,11.08,0,0,1-6.17,1.48c-5.3,0-8.52-3.2-8.52-8.76,0-5.91,3.17-9,7.92-9s7,2.28,7,5.69l-3.36.46c-.12-2.15-1.31-3.24-3.66-3.24-2.59,0-4.45,1.79-4.45,5.86,0,3.83,2.13,5.83,5.64,5.83" transform="translate(-1 -0.54)"/><path class="cls-2" d="M84.78,35.71c3.29,0,4.94-2.4,4.94-5.88s-1.65-5.88-4.94-5.88-4.94,2.4-4.94,5.88,1.65,5.88,4.94,5.88m0,3c-5.23,0-8.33-3.78-8.33-8.86S79.55,21,84.78,21s8.33,3.78,8.33,8.86S90,38.68,84.78,38.68" transform="translate(-1 -0.54)"/><path class="cls-2" d="M117,35.68l0,2.76a11.23,11.23,0,0,1-2,.15c-2,0-2.93-.44-3-3l-.29-9.3-4.5,9.83h-2.69L100,26.29l-.36,12.1H96.27l.51-17,4.21-.49,4.82,10.89,4.82-10.58h4.16l.48,14.31a8.88,8.88,0,0,0,1.69.17" transform="translate(-1 -0.54)"/><path class="cls-2" d="M140.44,35.68l0,2.76a11.22,11.22,0,0,1-2,.15c-2,0-2.93-.44-3-3l-.29-9.3-4.5,9.83h-2.69l-4.5-9.83-.36,12.1h-3.32l.51-17,4.21-.49,4.82,10.89,4.82-10.58h4.16l.49,14.31a8.86,8.86,0,0,0,1.69.17" transform="translate(-1 -0.54)"/><polygon class="cls-2" points="145.63 34.9 153.72 34.9 153.72 37.85 142.32 37.85 142.32 20.66 153.72 20.66 153.52 23.62 145.63 23.62 145.63 28.02 152.87 28.02 152.87 30.78 145.63 30.78 145.63 34.9"/><path class="cls-2" d="M162.23,29.39h2.83c2.2,0,3.46-.68,3.46-2.61s-1.14-2.86-3.7-2.86a15.42,15.42,0,0,0-2.59.22Zm10.68,6.29-.24,2.78a7.68,7.68,0,0,1-1.48.15,3.25,3.25,0,0,1-3.27-1.79l-2.86-4.55h-2.83v6.13h-3.32V24.11H157V21.4a10.21,10.21,0,0,1,2.44-.29,2.85,2.85,0,0,1,2,.65,8.66,8.66,0,0,1,3.83-.8c4.31,0,6.54,2.18,6.54,5.69a5.15,5.15,0,0,1-3.37,5.18l2,3.08c.44.68.78.77,2.4.77" transform="translate(-1 -0.54)"/><path class="cls-2" d="M184.15,35.56A9.15,9.15,0,0,0,189,34.18l.77,3a11.08,11.08,0,0,1-6.17,1.48c-5.3,0-8.52-3.2-8.52-8.76,0-5.91,3.17-9,7.92-9s7,2.28,7,5.69l-3.36.46c-.12-2.15-1.31-3.24-3.66-3.24-2.59,0-4.45,1.79-4.45,5.86,0,3.83,2.13,5.83,5.64,5.83" transform="translate(-1 -0.54)"/><rect class="cls-2" x="192.03" y="20.66" width="3.32" height="17.19"/><path class="cls-2" d="M212,24.13H207V38.39h-3.32V24.13h-5.06V21.4c.92-.07,2.74-.19,4.21-.19H212Z" transform="translate(-1 -0.54)"/><path class="cls-2" d="M229.11,21.37l-6.27,10.41v6.61h-3.32V31.78L215,24.06H213.1V21.35a10.51,10.51,0,0,1,2.23-.27,2.39,2.39,0,0,1,2.37,1.16l3.49,6.46,4.58-7.82Z" transform="translate(-1 -0.54)"/></svg>