<?xml version="1.0" encoding="utf-8"?>
<!-- Generator: Adobe Illustrator 21.0.0, SVG Export Plug-In . SVG Version: 6.00 Build 0)  -->
<svg version="1.1" id="Layer_1" xmlns="http://www.w3.org/2000/svg" xmlns:xlink="http://www.w3.org/1999/xlink" x="0px" y="0px"
	 viewBox="0 0 246 66" style="enable-background:new 0 0 246 66;" xml:space="preserve">
<style type="text/css">
	.st0{fill:#FFFFFF;}
</style>
<g>
	<g>
		<path class="st0" d="M35.8,32.9c0,1.3-1.1,2.4-2.4,2.4s-2.4-1.1-2.4-2.4c0-1.3,1.1-2.4,2.4-2.4S35.8,31.6,35.8,32.9"/>
		<path class="st0" d="M33.4,59.2c-14.5,0-26.3-11.8-26.3-26.3c0-14.5,11.8-26.3,26.3-26.3c7.1,0,13.6,2.9,18.3,7.5l2.2-2.2
			c-5.3-5.2-12.5-8.4-20.5-8.4C17.2,3.5,4,16.7,4,32.9c0,16.2,13.2,29.4,29.4,29.4c8.1,0,15.4-3.3,20.7-8.6l-2.2-2.2
			C47.2,56.3,40.6,59.2,33.4,59.2"/>
		<path class="st0" d="M33.4,51.2c-10,0-18.2-8.2-18.2-18.2s8.2-18.2,18.2-18.2c4.9,0,9.4,2,12.7,5.2l2.2-2.2
			c-3.8-3.8-9.1-6.1-14.9-6.1c-11.8,0-21.3,9.6-21.3,21.3s9.6,21.3,21.3,21.3c5.9,0,11.2-2.4,15-6.2l-2.2-2.2
			C42.9,49.1,38.4,51.2,33.4,51.2"/>
		<path class="st0" d="M33.4,43.1c-5.6,0-10.1-4.5-10.1-10.1c0-5.6,4.5-10.1,10.1-10.1c2.8,0,5.3,1.1,7.1,2.9l2.2-2.2
			c-2.4-2.3-5.6-3.8-9.2-3.8c-7.3,0-13.2,5.9-13.2,13.2c0,7.3,5.9,13.2,13.2,13.2c3.6,0,6.9-1.5,9.3-3.9l-2.2-2.2
			C38.7,41.9,36.2,43.1,33.4,43.1"/>
		<path class="st0" d="M30.9,32.9c0,1.3,1.1,2.4,2.4,2.4c1.3,0,2.4-1.1,2.4-2.4c0-1.3-1.1-2.4-2.4-2.4C32,30.5,30.9,31.6,30.9,32.9"
			/>
	</g>
	<path class="st0" d="M71.5,38.6c2.2,0,3.8-0.7,4.8-1.4l0.8,3C76,41,74,41.7,70.9,41.7c-5.3,0-8.5-3.2-8.5-8.8c0-5.9,3.2-9,7.9-9
		c4.6,0,7,2.3,7,5.7l-3.4,0.5c-0.1-2.2-1.3-3.2-3.7-3.2c-2.6,0-4.5,1.8-4.5,5.9C65.8,36.6,68,38.6,71.5,38.6"/>
	<path class="st0" d="M87.8,38.7c3.3,0,4.9-2.4,4.9-5.9c0-3.5-1.6-5.9-4.9-5.9c-3.2,0-4.9,2.4-4.9,5.9
		C82.8,36.3,84.5,38.7,87.8,38.7 M87.8,41.7c-5.2,0-8.3-3.8-8.3-8.9s3.1-8.9,8.3-8.9c5.3,0,8.3,3.8,8.3,8.9S93,41.7,87.8,41.7"/>
	<path class="st0" d="M120,38.7l0,2.8c-0.3,0.1-1.1,0.1-2,0.1c-2,0-2.9-0.4-3-3l-0.3-9.3l-4.5,9.8h-2.7l-4.5-9.8l-0.4,12.1h-3.3
		l0.5-17l4.2-0.5l4.8,10.9l4.8-10.6h4.2l0.5,14.3C118.7,38.6,119.4,38.7,120,38.7"/>
	<path class="st0" d="M143.4,38.7l0,2.8c-0.3,0.1-1.1,0.1-2,0.1c-2,0-2.9-0.4-3-3l-0.3-9.3l-4.5,9.8h-2.7l-4.5-9.8l-0.4,12.1h-3.3
		l0.5-17l4.2-0.5l4.8,10.9l4.8-10.6h4.2l0.5,14.3C142.2,38.6,142.9,38.7,143.4,38.7"/>
	<polygon class="st0" points="149.6,38.4 157.7,38.4 157.7,41.4 146.3,41.4 146.3,24.2 157.7,24.2 157.5,27.2 149.6,27.2 
		149.6,31.6 156.9,31.6 156.9,34.3 149.6,34.3 	"/>
	<path class="st0" d="M165.2,32.4h2.8c2.2,0,3.5-0.7,3.5-2.6c0-1.9-1.1-2.9-3.7-2.9c-1,0-1.9,0.1-2.6,0.2V32.4z M175.9,38.7
		l-0.2,2.8c-0.4,0.1-0.9,0.1-1.5,0.1c-1.5,0-2.3-0.3-3.3-1.8l-2.9-4.6h-2.8v6.1h-3.3V27.1H160v-2.7c0.5-0.1,1.3-0.3,2.4-0.3
		c0.9,0,1.6,0.2,2,0.7c0.8-0.4,2.1-0.8,3.8-0.8c4.3,0,6.5,2.2,6.5,5.7c0,2.6-1.3,4.4-3.4,5.2l2,3.1
		C173.9,38.6,174.3,38.7,175.9,38.7"/>
	<path class="st0" d="M187.1,38.6c2.2,0,3.8-0.7,4.8-1.4l0.8,3c-1.1,0.8-3.1,1.5-6.2,1.5c-5.3,0-8.5-3.2-8.5-8.8c0-5.9,3.2-9,7.9-9
		c4.6,0,7,2.3,7,5.7l-3.4,0.5c-0.1-2.2-1.3-3.2-3.7-3.2c-2.6,0-4.5,1.8-4.5,5.9C181.5,36.6,183.6,38.6,187.1,38.6"/>
	<rect x="196" y="24.2" class="st0" width="3.3" height="17.2"/>
	<path class="st0" d="M215,27.1H210v14.3h-3.3V27.1h-5.1v-2.7c0.9-0.1,2.7-0.2,4.2-0.2h9.2V27.1z"/>
	<path class="st0" d="M232.1,24.4l-6.3,10.4v6.6h-3.3v-6.6l-4.6-7.7h-1.9v-2.7c0.3-0.1,1.4-0.3,2.2-0.3c1.3,0,2,0.4,2.4,1.2l3.5,6.5
		l4.6-7.8L232.1,24.4z"/>
	<path class="st0" d="M237.5,24.6h-1.1v2.9h-0.5v-2.9h-1.1v-0.4c0.2,0,0.6,0,0.9,0h1.7V24.6z"/>
	<path class="st0" d="M242,27.2l0,0.4c-0.1,0-0.2,0-0.3,0c-0.3,0-0.5-0.1-0.5-0.4l-0.1-2.3l-1,2.2h-0.4l-1-2.2l-0.1,2.7h-0.5
		l0.1-3.3l0.6-0.1l1.1,2.4l1.1-2.3h0.6l0.1,3C241.7,27.2,241.9,27.2,242,27.2"/>
</g>
</svg>
