<svg id="Layer_1" data-name="Layer 1" xmlns="http://www.w3.org/2000/svg" viewBox="0 0 228.11 72.09"><defs><style>.cls-1{fill:#8cc63f;}.cls-2{fill:#3c3c3b;}</style></defs><title>powered_by_logo</title><path class="cls-1" d="M32.84,47.93a2.44,2.44,0,1,1-2.44-2.44,2.44,2.44,0,0,1,2.44,2.44" transform="translate(-1 -5.23)"/><path class="cls-1" d="M30.39,74.23A26.3,26.3,0,1,1,48.74,29.11l2.15-2.22a29.39,29.39,0,1,0,.21,41.87l-2.18-2.19a26.21,26.21,0,0,1-18.53,7.66" transform="translate(-1 -5.23)"/><path class="cls-1" d="M30.39,66.16A18.22,18.22,0,1,1,43.12,34.91l2.15-2.22A21.31,21.31,0,1,0,45.41,63l-2.18-2.19a18.16,18.16,0,0,1-12.84,5.31" transform="translate(-1 -5.23)"/><path class="cls-1" d="M30.39,58.05a10.12,10.12,0,1,1,7.09-17.33l2.15-2.22a13.21,13.21,0,1,0,.08,18.79L37.53,55.1a10.09,10.09,0,0,1-7.14,3" transform="translate(-1 -5.23)"/><path class="cls-1" d="M27.95,47.93a2.44,2.44,0,1,0,2.44-2.44,2.44,2.44,0,0,0-2.44,2.44" transform="translate(-1 -5.23)"/><path class="cls-2" d="M68.47,53.56a9.14,9.14,0,0,0,4.84-1.38l.77,3a11.08,11.08,0,0,1-6.17,1.48c-5.3,0-8.52-3.2-8.52-8.76,0-5.91,3.17-9,7.92-9s7,2.28,7,5.69l-3.36.46c-.12-2.15-1.31-3.24-3.66-3.24-2.59,0-4.45,1.79-4.45,5.86,0,3.83,2.13,5.83,5.64,5.83" transform="translate(-1 -5.23)"/><path class="cls-2" d="M84.78,53.71c3.29,0,4.94-2.4,4.94-5.88s-1.65-5.88-4.94-5.88-4.94,2.4-4.94,5.88,1.65,5.88,4.94,5.88m0,3c-5.23,0-8.33-3.78-8.33-8.86S79.55,39,84.78,39s8.33,3.78,8.33,8.86S90,56.68,84.78,56.68" transform="translate(-1 -5.23)"/><path class="cls-2" d="M117,53.68l0,2.76a11.23,11.23,0,0,1-2,.15c-2,0-2.93-.44-3-3l-.29-9.3-4.5,9.83h-2.69L100,44.29l-.36,12.1H96.27l.51-17,4.21-.49,4.82,10.89,4.82-10.58h4.16l.48,14.31a8.88,8.88,0,0,0,1.69.17" transform="translate(-1 -5.23)"/><path class="cls-2" d="M140.44,53.68l0,2.76a11.22,11.22,0,0,1-2,.15c-2,0-2.93-.44-3-3l-.29-9.3-4.5,9.83h-2.69l-4.5-9.83-.36,12.1h-3.32l.51-17,4.21-.49,4.82,10.89,4.82-10.58h4.16l.49,14.31a8.86,8.86,0,0,0,1.69.17" transform="translate(-1 -5.23)"/><polygon class="cls-2" points="145.63 48.21 153.72 48.21 153.72 51.16 142.32 51.16 142.32 33.97 153.72 33.97 153.52 36.93 145.63 36.93 145.63 41.33 152.87 41.33 152.87 44.09 145.63 44.09 145.63 48.21"/><path class="cls-2" d="M162.23,47.39h2.83c2.2,0,3.46-.68,3.46-2.61s-1.14-2.86-3.7-2.86a15.42,15.42,0,0,0-2.59.22Zm10.68,6.29-.24,2.78a7.68,7.68,0,0,1-1.48.15,3.25,3.25,0,0,1-3.27-1.79l-2.86-4.55h-2.83v6.13h-3.32V42.11H157V39.4a10.21,10.21,0,0,1,2.44-.29,2.85,2.85,0,0,1,2,.65,8.66,8.66,0,0,1,3.83-.8c4.31,0,6.54,2.18,6.54,5.69a5.15,5.15,0,0,1-3.37,5.18l2,3.08c.44.68.78.77,2.4.77" transform="translate(-1 -5.23)"/><path class="cls-2" d="M184.15,53.56A9.15,9.15,0,0,0,189,52.18l.77,3a11.08,11.08,0,0,1-6.17,1.48c-5.3,0-8.52-3.2-8.52-8.76,0-5.91,3.17-9,7.92-9s7,2.28,7,5.69l-3.36.46c-.12-2.15-1.31-3.24-3.66-3.24-2.59,0-4.45,1.79-4.45,5.86,0,3.83,2.13,5.83,5.64,5.83" transform="translate(-1 -5.23)"/><rect class="cls-2" x="192.03" y="33.97" width="3.32" height="17.19"/><path class="cls-2" d="M212,42.13H207V56.39h-3.32V42.13h-5.06V39.4c.92-.07,2.74-.19,4.21-.19H212Z" transform="translate(-1 -5.23)"/><path class="cls-2" d="M229.11,39.37l-6.27,10.41v6.61h-3.32V49.78L215,42.06H213.1V39.35a10.51,10.51,0,0,1,2.23-.27,2.39,2.39,0,0,1,2.37,1.16l3.49,6.46,4.58-7.82Z" transform="translate(-1 -5.23)"/><path class="cls-2" d="M80.76,6.3A5.73,5.73,0,0,1,84,7.07a2.71,2.71,0,0,1,1.13,2.41,3.27,3.27,0,0,1-.3,1.46,2.53,2.53,0,0,1-.87,1,4.05,4.05,0,0,1-1.4.57,8.82,8.82,0,0,1-1.89.18h-.88V16.1H78V6.53a8.77,8.77,0,0,1,1.36-.19Q80.13,6.3,80.76,6.3Zm.13,1.53q-.67,0-1.11,0v3.3h.85a4.33,4.33,0,0,0,2-.36,1.38,1.38,0,0,0,.69-1.35,1.61,1.61,0,0,0-.18-.8,1.31,1.31,0,0,0-.5-.5,2.38,2.38,0,0,0-.76-.26A5.5,5.5,0,0,0,80.88,7.82Z" transform="translate(-1 -5.23)"/><path class="cls-2" d="M93,12.43A4.73,4.73,0,0,1,92.77,14a3.51,3.51,0,0,1-.71,1.22,3.21,3.21,0,0,1-1.11.78,3.6,3.6,0,0,1-1.44.28A3.55,3.55,0,0,1,88.08,16,3.23,3.23,0,0,1,87,15.23,3.59,3.59,0,0,1,86.25,14,4.61,4.61,0,0,1,86,12.43a4.55,4.55,0,0,1,.26-1.58A3.53,3.53,0,0,1,87,9.64a3.22,3.22,0,0,1,1.11-.78,3.58,3.58,0,0,1,1.41-.27,3.64,3.64,0,0,1,1.42.27A3.14,3.14,0,0,1,92,9.64a3.61,3.61,0,0,1,.72,1.21A4.55,4.55,0,0,1,93,12.43Zm-1.74,0a2.86,2.86,0,0,0-.47-1.73,1.66,1.66,0,0,0-2.62,0,2.86,2.86,0,0,0-.47,1.73,2.91,2.91,0,0,0,.47,1.75,1.65,1.65,0,0,0,2.62,0A2.92,2.92,0,0,0,91.28,12.43Z" transform="translate(-1 -5.23)"/><path class="cls-2" d="M99,11.49q-.32,1.23-.69,2.4t-.73,2.21H96.17q-.28-.64-.59-1.47T95,12.86q-.31-.94-.62-2t-.6-2.11h1.79q.13.59.3,1.27t.35,1.39q.18.71.38,1.38T97,14q.21-.64.41-1.33t.39-1.37q.18-.69.34-1.34t.29-1.22h1.3q.13.57.28,1.22t.33,1.34q.17.69.38,1.37t.41,1.33q.18-.56.38-1.23t.39-1.38q.19-.71.36-1.39t.3-1.27h1.75q-.3,1.08-.6,2.11t-.62,2q-.31.94-.62,1.76t-.6,1.47h-1.38q-.36-1-.75-2.21T99,11.49Z" transform="translate(-1 -5.23)"/><path class="cls-2" d="M105.13,12.47a4.6,4.6,0,0,1,.29-1.69,3.56,3.56,0,0,1,.76-1.21,3.15,3.15,0,0,1,1.09-.73,3.38,3.38,0,0,1,1.26-.25,3,3,0,0,1,2.36.94,4.06,4.06,0,0,1,.85,2.8c0,.09,0,.2,0,.31s0,.22,0,.31h-4.83a1.93,1.93,0,0,0,.62,1.37,2.37,2.37,0,0,0,1.6.48,5.27,5.27,0,0,0,1.13-.11,4.65,4.65,0,0,0,.81-.24l.22,1.39a2.71,2.71,0,0,1-.39.15,5.47,5.47,0,0,1-.56.14l-.68.1a6.52,6.52,0,0,1-.74,0,4.49,4.49,0,0,1-1.68-.29,3.13,3.13,0,0,1-1.18-.8,3.27,3.27,0,0,1-.69-1.2A4.91,4.91,0,0,1,105.13,12.47Zm4.91-.76a2.22,2.22,0,0,0-.1-.67,1.6,1.6,0,0,0-.29-.55,1.36,1.36,0,0,0-.46-.36,1.48,1.48,0,0,0-.65-.13,1.51,1.51,0,0,0-.69.15,1.56,1.56,0,0,0-.5.38,1.76,1.76,0,0,0-.31.55,3,3,0,0,0-.15.63Z" transform="translate(-1 -5.23)"/><path class="cls-2" d="M117.7,10.3a5.36,5.36,0,0,0-.58-.15,4.28,4.28,0,0,0-.86-.08,3.43,3.43,0,0,0-.6.06l-.44.1V16.1h-1.69v-7a9.36,9.36,0,0,1,1.23-.34,7.63,7.63,0,0,1,1.63-.16l.39,0,.45.06.43.08.34.09Z" transform="translate(-1 -5.23)"/><path class="cls-2" d="M118.77,12.47a4.6,4.6,0,0,1,.29-1.69,3.56,3.56,0,0,1,.76-1.21,3.15,3.15,0,0,1,1.09-.73,3.37,3.37,0,0,1,1.26-.25,3,3,0,0,1,2.36.94,4.06,4.06,0,0,1,.85,2.8c0,.09,0,.2,0,.31s0,.22,0,.31h-4.83a1.93,1.93,0,0,0,.62,1.37,2.37,2.37,0,0,0,1.6.48,5.27,5.27,0,0,0,1.13-.11,4.62,4.62,0,0,0,.8-.24l.22,1.39a2.75,2.75,0,0,1-.38.15,5.51,5.51,0,0,1-.56.14l-.68.1a6.52,6.52,0,0,1-.74,0,4.49,4.49,0,0,1-1.68-.29,3.13,3.13,0,0,1-1.18-.8A3.27,3.27,0,0,1,119,14,4.91,4.91,0,0,1,118.77,12.47Zm4.91-.76a2.22,2.22,0,0,0-.1-.67,1.59,1.59,0,0,0-.29-.55,1.34,1.34,0,0,0-.46-.36,1.48,1.48,0,0,0-.65-.13,1.51,1.51,0,0,0-.69.15,1.57,1.57,0,0,0-.5.38,1.76,1.76,0,0,0-.31.55,3,3,0,0,0-.15.63Z" transform="translate(-1 -5.23)"/><path class="cls-2" d="M133.35,15.87a10,10,0,0,1-1.27.28,9.85,9.85,0,0,1-1.6.13,4.28,4.28,0,0,1-1.55-.27,3.24,3.24,0,0,1-1.17-.76A3.34,3.34,0,0,1,127,14a4.59,4.59,0,0,1-.26-1.59,5.32,5.32,0,0,1,.22-1.57,3.44,3.44,0,0,1,.64-1.21,2.83,2.83,0,0,1,1-.78A3.33,3.33,0,0,1,130,8.62a3.18,3.18,0,0,1,.94.13,4.21,4.21,0,0,1,.7.28V5.51l1.69-.28Zm-4.86-3.46a2.66,2.66,0,0,0,.53,1.76,1.81,1.81,0,0,0,1.47.64,5.81,5.81,0,0,0,.69,0l.47-.08V10.5a2.64,2.64,0,0,0-.59-.29,2.33,2.33,0,0,0-.79-.13,1.51,1.51,0,0,0-1.35.63A3,3,0,0,0,128.5,12.41Z" transform="translate(-1 -5.23)"/><path class="cls-2" d="M145.37,12.44a4.61,4.61,0,0,1-.26,1.59,3.44,3.44,0,0,1-.74,1.21,3.2,3.2,0,0,1-1.17.77,4.27,4.27,0,0,1-1.55.27,9.83,9.83,0,0,1-1.6-.13,10,10,0,0,1-1.27-.28V5.51l1.69-.28V9a4,4,0,0,1,.72-.28,3.61,3.61,0,0,1,2.32.15,2.69,2.69,0,0,1,1,.78,3.57,3.57,0,0,1,.62,1.21A5.31,5.31,0,0,1,145.37,12.44Zm-1.74,0a3,3,0,0,0-.43-1.71,1.52,1.52,0,0,0-1.35-.63,2.59,2.59,0,0,0-1.39.41V14.7l.47.08a5.8,5.8,0,0,0,.69,0,1.81,1.81,0,0,0,1.47-.64A2.66,2.66,0,0,0,143.63,12.41Z" transform="translate(-1 -5.23)"/><path class="cls-2" d="M152.94,8.77a53.31,53.31,0,0,1-2.63,7.56,7.64,7.64,0,0,1-.57,1.08,3.22,3.22,0,0,1-.66.74,2.35,2.35,0,0,1-.81.43,3.89,3.89,0,0,1-1.82,0,2.65,2.65,0,0,1-.58-.18l.31-1.36a2.76,2.76,0,0,0,1,.2,1.55,1.55,0,0,0,1-.31,2.58,2.58,0,0,0,.65-1q-.8-1.54-1.54-3.36A37.07,37.07,0,0,1,146,8.77h1.81q.14.59.34,1.27t.44,1.39q.24.71.5,1.41t.53,1.3q.45-1.25.84-2.65t.71-2.72Z" transform="translate(-1 -5.23)"/></svg>